<?xml version="1.0" encoding="UTF-8"?>
<svg xmlns="http://www.w3.org/2000/svg" xmlns:xlink="http://www.w3.org/1999/xlink" width="5000" height="3593.94" viewBox="0 0 5000 3593.94">
<defs>
<clipPath id="clip-0">
<path clip-rule="nonzero" d="M 768 615 L 4232 615 L 4232 2979 L 768 2979 Z M 768 615 "/>
</clipPath>
<clipPath id="clip-1">
<path clip-rule="nonzero" d="M 4231.570312 1908.871094 C 4231.570312 1666.371094 4051.410156 1466.058594 3817.660156 1434.179688 C 3809.21875 1138.738281 3567.238281 901.78125 3269.761719 901.78125 C 3198.878906 901.78125 3131.230469 915.378906 3069.050781 939.859375 C 2953.949219 745.511719 2742.25 615.109375 2500 615.109375 C 2257.75 615.109375 2046.050781 745.511719 1930.949219 939.859375 C 1868.769531 915.378906 1801.109375 901.78125 1730.238281 901.78125 C 1432.761719 901.78125 1190.78125 1138.738281 1182.339844 1434.179688 C 948.589844 1466.058594 768.429688 1666.359375 768.429688 1908.871094 C 768.429688 2158.691406 959.609375 2363.761719 1203.628906 2386 C 1269.761719 2614.519531 1480.410156 2781.671875 1730.238281 2781.671875 C 1819.289062 2781.671875 1903.300781 2760.308594 1977.640625 2722.640625 C 2098.570312 2878.441406 2287.511719 2978.820312 2500 2978.820312 C 2712.488281 2978.820312 2901.429688 2878.441406 3022.351562 2722.640625 C 3096.699219 2760.308594 3180.710938 2781.671875 3269.761719 2781.671875 C 3519.578125 2781.671875 3730.238281 2614.519531 3796.371094 2386 C 4040.390625 2363.761719 4231.570312 2158.691406 4231.570312 1908.871094 Z M 4231.570312 1908.871094 "/>
</clipPath>
<clipPath id="clip-2">
<path clip-rule="nonzero" d="M 4231.570312 1908.871094 C 4231.570312 1666.371094 4051.410156 1466.058594 3817.660156 1434.179688 C 3809.21875 1138.738281 3567.238281 901.78125 3269.761719 901.78125 C 3198.878906 901.78125 3131.230469 915.378906 3069.050781 939.859375 C 2953.949219 745.511719 2742.25 615.109375 2500 615.109375 C 2257.75 615.109375 2046.050781 745.511719 1930.949219 939.859375 C 1868.769531 915.378906 1801.109375 901.78125 1730.238281 901.78125 C 1432.761719 901.78125 1190.78125 1138.738281 1182.339844 1434.179688 C 948.589844 1466.058594 768.429688 1666.359375 768.429688 1908.871094 C 768.429688 2158.691406 959.609375 2363.761719 1203.628906 2386 C 1269.761719 2614.519531 1480.410156 2781.671875 1730.238281 2781.671875 C 1819.289062 2781.671875 1903.300781 2760.308594 1977.640625 2722.640625 C 2098.570312 2878.441406 2287.511719 2978.820312 2500 2978.820312 C 2712.488281 2978.820312 2901.429688 2878.441406 3022.351562 2722.640625 C 3096.699219 2760.308594 3180.710938 2781.671875 3269.761719 2781.671875 C 3519.578125 2781.671875 3730.238281 2614.519531 3796.371094 2386 C 4040.390625 2363.761719 4231.570312 2158.691406 4231.570312 1908.871094 "/>
</clipPath>
<radialGradient id="radial-pattern-0" gradientUnits="userSpaceOnUse" cx="0" cy="0" fx="0" fy="0" r="1817.935" gradientTransform="matrix(1.169701, 0, 0, 0.830299, 2798.82, 1335.16)">
<stop offset="0" stop-color="rgb(100%, 100%, 100%)" stop-opacity="1"/>
<stop offset="0.25" stop-color="rgb(99.969482%, 99.967957%, 99.967957%)" stop-opacity="1"/>
<stop offset="0.34375" stop-color="rgb(99.819946%, 99.816895%, 99.81842%)" stop-opacity="1"/>
<stop offset="0.425781" stop-color="rgb(99.539185%, 99.531555%, 99.533081%)" stop-opacity="1"/>
<stop offset="0.496094" stop-color="rgb(99.290466%, 99.276733%, 99.279785%)" stop-opacity="1"/>
<stop offset="0.527344" stop-color="rgb(99.111938%, 99.095154%, 99.099731%)" stop-opacity="1"/>
<stop offset="0.554688" stop-color="rgb(98.928833%, 98.908997%, 98.9151%)" stop-opacity="1"/>
<stop offset="0.582031" stop-color="rgb(98.742676%, 98.721313%, 98.725891%)" stop-opacity="1"/>
<stop offset="0.605469" stop-color="rgb(98.562622%, 98.536682%, 98.542786%)" stop-opacity="1"/>
<stop offset="0.628906" stop-color="rgb(98.38562%, 98.356628%, 98.362732%)" stop-opacity="1"/>
<stop offset="0.648438" stop-color="rgb(98.214722%, 98.181152%, 98.190308%)" stop-opacity="1"/>
<stop offset="0.667969" stop-color="rgb(98.034668%, 97.999573%, 98.008728%)" stop-opacity="1"/>
<stop offset="0.6875" stop-color="rgb(97.851562%, 97.81189%, 97.821045%)" stop-opacity="1"/>
<stop offset="0.707031" stop-color="rgb(97.676086%, 97.633362%, 97.644043%)" stop-opacity="1"/>
<stop offset="0.722656" stop-color="rgb(97.43042%, 97.384644%, 97.395325%)" stop-opacity="1"/>
<stop offset="0.753906" stop-color="rgb(97.113037%, 97.061157%, 97.07489%)" stop-opacity="1"/>
<stop offset="0.78125" stop-color="rgb(96.79718%, 96.739197%, 96.754456%)" stop-opacity="1"/>
<stop offset="0.808594" stop-color="rgb(96.495056%, 96.430969%, 96.447754%)" stop-opacity="1"/>
<stop offset="0.832031" stop-color="rgb(96.226501%, 96.157837%, 96.174622%)" stop-opacity="1"/>
<stop offset="0.851562" stop-color="rgb(95.999146%, 95.925903%, 95.944214%)" stop-opacity="1"/>
<stop offset="0.867188" stop-color="rgb(95.793152%, 95.716858%, 95.735168%)" stop-opacity="1"/>
<stop offset="0.882812" stop-color="rgb(95.608521%, 95.529175%, 95.549011%)" stop-opacity="1"/>
<stop offset="0.894531" stop-color="rgb(95.362854%, 95.278931%, 95.300293%)" stop-opacity="1"/>
<stop offset="0.917969" stop-color="rgb(95.059204%, 94.969177%, 94.992065%)" stop-opacity="1"/>
<stop offset="0.9375" stop-color="rgb(94.801331%, 94.706726%, 94.729614%)" stop-opacity="1"/>
<stop offset="0.953125" stop-color="rgb(94.596863%, 94.499207%, 94.523621%)" stop-opacity="1"/>
<stop offset="0.964844" stop-color="rgb(94.389343%, 94.287109%, 94.311523%)" stop-opacity="1"/>
<stop offset="0.980469" stop-color="rgb(94.114685%, 94.007874%, 94.033813%)" stop-opacity="1"/>
<stop offset="1" stop-color="rgb(93.960571%, 93.850708%, 93.878174%)" stop-opacity="1"/>
</radialGradient>
</defs>
<path fill-rule="nonzero" fill="rgb(58.007812%, 86.494446%, 97.366333%)" fill-opacity="1" d="M 5000 3593.941406 L 0 3593.941406 L 0 0 L 5000 0 L 5000 3593.941406 "/>
<g clip-path="url(#clip-0)">
<g clip-path="url(#clip-1)">
<g clip-path="url(#clip-2)">
<path fill-rule="nonzero" fill="url(#radial-pattern-0)" d="M 768.429688 615.109375 L 768.429688 2978.820312 L 4231.570312 2978.820312 L 4231.570312 615.109375 Z M 768.429688 615.109375 "/>
</g>
</g>
</g>
</svg>
